# xmcd
#
# Track frame offsets:
# 150
# 14903
# 26100
# 38608
# 52545
# 63673
# 76380
# 88860
# 100700
# 111958
# 124560
# 136740
# 148715
# 159433
# 173818
# 184870
#
# Disc length: 2622 seconds
#
#
# Revision: 0
# Processed by: cddbd v1.5.1PL2 Copyright (c) Steve Scherf et al.
# Submitted via: FreeRIP 2.60 
#
DISCID=d00a3c10
DTITLE=Marvin Gaye - His greatest hits
DYEAR=1989
DGENRE=Soul
TTITLE0=I Heard It Trough The Grapevine
TTITLE1=Pride And Joy
TTITLE2=I'll Be Doggone
TTITLE3=Your Precious Love
TTITLE4=Hitchhike
TTITLE5=Can I Get A Witness
TTITLE6=You're A Wonderful One
TTITLE7=Pretty Little Baby
TTITLE8=Ain't No Mountain High Enough
TTITLE9=Try it Baby
TTITLE10=One More Heartache
TTITLE11=Baby Don't You Do It
TTITLE12=If I could Build My Whole World Around You
TTITLE13=Your Unchanging Love
TTITLE14=You
TTITLE15=Chained
EXTD=
EXTT0=
EXTT1=
EXTT2=
EXTT3=
EXTT4=
EXTT5=
EXTT6=
EXTT7=
EXTT8=
EXTT9=
EXTT10=
EXTT11=
EXTT12=
EXTT13=
EXTT14=
EXTT15=
PLAYORDER=
